<?xml version="1.0" standalone="no"?>
<!DOCTYPE svg PUBLIC "-//W3C//DTD SVG 20010904//EN"
 "http://www.w3.org/TR/2001/REC-SVG-20010904/DTD/svg10.dtd">
<svg version="1.0" xmlns="http://www.w3.org/2000/svg"
 width="1024.000000pt" height="1024.000000pt" viewBox="0 0 1024.000000 1024.000000"
 preserveAspectRatio="xMidYMid meet">

<g transform="translate(0.000000,1024.000000) scale(0.100000,-0.100000)"
fill="#000000" stroke="none">
<path d="M0 5120 l0 -5120 5120 0 5120 0 0 5120 0 5120 -5120 0 -5120 0 0
-5120z m4363 3301 c77 -27 207 -94 263 -137 50 -39 151 -89 301 -149 104 -42
196 -96 281 -164 35 -28 69 -51 75 -51 30 -1 137 -54 221 -110 69 -45 124 -71
210 -101 65 -22 143 -52 174 -68 112 -56 338 -143 434 -167 55 -13 138 -42
186 -64 116 -52 183 -60 547 -67 224 -4 366 -1 561 11 292 19 383 14 512 -30
97 -32 146 -58 207 -107 155 -126 224 -293 212 -515 -7 -143 -38 -237 -116
-352 -52 -76 -58 -70 164 -156 66 -25 149 -61 185 -81 70 -38 200 -122 200
-129 0 -2 -17 3 -37 12 -145 62 -287 111 -401 140 -201 51 -280 45 -329 -26
-20 -29 -10 -35 76 -50 73 -12 238 -52 316 -77 90 -28 250 -113 316 -167 35
-29 83 -63 106 -74 35 -18 64 -42 50 -42 -2 0 -45 18 -96 40 -123 53 -414 144
-526 164 -49 8 -187 27 -305 42 -118 14 -218 29 -222 33 -11 9 60 80 121 121
64 43 207 207 255 292 110 197 133 407 61 555 -42 85 -135 177 -219 217 -121
58 -140 59 -576 41 -432 -19 -815 -11 -999 21 -90 15 -97 19 -138 60 -54 54
-103 69 -168 53 -44 -11 -46 -11 -84 24 -43 39 -46 40 -146 61 -84 17 -142 43
-215 95 -56 40 -114 61 -170 61 -44 0 -141 52 -207 111 -66 60 -124 88 -198
96 -72 8 -123 38 -155 93 -35 61 -109 105 -203 120 -75 13 -75 13 -397 196
-80 45 -163 87 -185 93 -153 41 -319 -30 -416 -177 -70 -107 -98 -207 -114
-403 l-6 -76 -77 -26 c-209 -70 -403 -70 -598 1 -104 38 -152 69 -249 162 -92
87 -152 130 -232 167 -47 22 -72 26 -142 27 -73 0 -95 -4 -145 -27 -83 -38
-134 -83 -190 -167 -139 -206 -237 -605 -235 -952 0 -112 4 -147 29 -264 13
-61 13 -62 -25 -158 -21 -54 -63 -138 -92 -188 -114 -192 -106 -299 41 -528
23 -36 45 -70 49 -77 5 -7 -1 -16 -13 -23 -17 -9 -30 -5 -79 24 -31 19 -93 52
-137 71 -43 20 -103 48 -133 61 -87 40 -222 134 -282 196 -118 122 -174 259
-174 423 0 97 1 102 37 165 43 74 77 120 78 104 0 -6 -6 -17 -14 -23 -7 -6
-26 -39 -41 -74 -99 -219 64 -492 418 -700 l77 -46 -6 27 c-3 15 -10 41 -15
57 -20 61 -22 177 -6 242 18 67 82 201 148 310 l41 67 -16 68 c-48 199 -41
450 20 770 58 301 161 521 306 652 163 148 371 184 562 97 91 -41 144 -80 261
-191 110 -104 146 -124 284 -157 74 -17 251 -14 357 7 l62 12 7 71 c12 127 34
210 81 305 83 170 232 296 380 322 67 12 194 2 257 -19z m-43 -289 c30 -15
121 -65 202 -110 80 -45 151 -82 157 -82 6 0 11 -4 11 -10 0 -6 -36 -10 -88
-10 -201 0 -323 -66 -548 -296 l-111 -113 -13 27 c-18 39 -24 206 -10 289 20
121 91 247 172 305 64 45 139 45 228 0z m628 -290 l24 -18 -109 -92 c-59 -50
-133 -115 -163 -143 -70 -66 -96 -83 -115 -75 -26 9 -17 36 35 107 85 114 234
239 284 239 12 0 32 -9 44 -18z m-2471 -27 c12 -8 45 -57 74 -108 85 -150 129
-219 176 -271 173 -193 468 -301 729 -267 250 33 439 135 698 376 191 179 206
190 301 220 63 21 90 25 132 19 29 -3 53 -10 53 -14 0 -5 -33 -44 -73 -87 -85
-90 -97 -109 -97 -155 0 -77 73 -136 154 -123 36 6 54 21 141 111 63 66 108
104 121 104 28 0 114 -56 114 -75 0 -9 -18 -44 -41 -80 -48 -77 -59 -124 -35
-160 39 -59 124 -82 186 -50 15 8 50 40 77 72 53 64 83 92 98 93 18 0 115 -64
115 -78 0 -7 -16 -43 -36 -80 -29 -54 -35 -75 -31 -106 6 -45 47 -92 88 -101
57 -13 89 4 189 101 l96 93 46 -29 c25 -16 49 -33 52 -39 4 -6 -5 -34 -20 -63
-46 -91 -31 -157 45 -194 64 -31 146 3 198 81 14 22 45 61 67 87 35 41 42 45
60 36 33 -17 36 -29 30 -95 -7 -61 -6 -63 29 -98 51 -51 104 -48 169 13 18 17
31 43 39 81 7 31 16 60 20 65 4 5 28 5 54 2 46 -7 46 -8 40 -39 -11 -50 -55
-125 -94 -159 -49 -43 -139 -83 -255 -113 -172 -44 -366 -33 -612 35 -80 23
-174 62 -354 150 -300 147 -362 165 -525 157 -180 -9 -301 -58 -520 -211 -274
-191 -498 -276 -731 -276 -147 0 -166 6 -242 72 -123 110 -267 184 -605 314
-225 87 -296 107 -431 123 -43 5 -82 13 -87 18 -11 11 50 274 84 364 74 195
161 299 251 299 23 0 51 -7 63 -15z m2637 -134 c20 -22 16 -48 -10 -58 -20 -8
-64 38 -64 67 0 36 37 32 74 -9z m207 -51 l24 -20 -60 -55 c-129 -119 -238
-206 -253 -203 -31 6 -23 34 32 110 56 76 185 188 217 188 9 0 27 -9 40 -20z
m187 -150 c35 -21 38 -30 20 -48 -21 -21 -46 -13 -67 22 -12 18 -21 36 -21 40
0 13 36 5 68 -14z m203 -41 l29 -20 -106 -102 c-59 -56 -127 -117 -151 -136
-43 -34 -46 -34 -59 -17 -16 23 -5 47 58 123 39 46 181 173 194 173 3 0 19 -9
35 -21z m193 -130 c29 -23 34 -44 10 -53 -32 -12 -77 36 -59 64 9 15 19 12 49
-11z m186 -34 c10 -12 9 -20 -5 -41 -27 -42 -199 -214 -213 -214 -24 0 -25 33
-1 78 13 24 55 78 92 118 71 76 101 90 127 59z m250 -75 c24 -24 25 -54 5
-125 -12 -38 -22 -54 -37 -58 -36 -10 -41 2 -35 90 6 108 26 134 67 93z m1639
-120 c141 -23 248 -119 267 -239 7 -46 -6 -72 -97 -187 -197 -249 -726 -492
-1404 -644 -121 -27 -411 -71 -534 -81 -128 -10 -720 -7 -803 4 -20 3 -64 8
-98 12 l-60 7 21 38 c53 94 222 248 334 304 144 72 279 99 640 131 388 34 586
72 930 180 393 124 655 296 679 446 7 45 14 46 125 29z m-889 -26 c210 -4 402
-2 490 4 79 6 146 9 148 7 2 -2 -4 -17 -13 -35 -70 -135 -335 -259 -810 -380
-234 -59 -328 -75 -570 -95 -396 -32 -452 -38 -535 -58 -47 -11 -119 -22 -160
-24 -81 -4 -235 -30 -262 -44 -10 -5 -77 -23 -150 -40 -131 -30 -185 -33 -348
-18 -8 1 -24 -1 -35 -5 -11 -4 10 12 47 36 43 29 113 61 200 91 162 56 227 72
383 91 132 17 165 24 165 36 0 22 -83 34 -230 33 -173 0 -228 -12 -448 -92
-62 -22 -111 -37 -108 -32 3 5 19 14 35 21 48 20 28 35 -47 35 -51 -1 -93 -10
-177 -40 -113 -39 -194 -52 -173 -28 15 18 183 114 243 139 27 11 88 31 135
43 112 30 223 63 233 69 5 2 -11 14 -35 25 -30 14 -65 20 -115 21 -40 1 -73 4
-73 9 0 4 10 7 23 8 12 1 -4 10 -38 21 -139 46 -303 4 -578 -147 -203 -112
-327 -153 -327 -110 0 9 -10 15 -22 16 -13 0 -17 3 -11 6 7 2 15 4 19 3 4 -1
10 2 13 7 3 5 44 31 91 58 47 28 129 83 184 123 138 103 186 131 274 159 107
34 205 45 303 32 97 -12 135 -26 254 -95 210 -120 321 -167 532 -226 117 -33
120 -33 333 -33 206 1 219 2 305 29 118 36 163 56 246 112 100 66 149 139 174
258 6 27 8 28 48 22 23 -3 197 -9 387 -12z m-4830 -39 c41 -8 146 -42 233 -74
445 -169 616 -268 799 -460 80 -84 105 -119 156 -216 36 -71 55 -118 49 -120
-36 -11 -280 -14 -386 -5 -368 30 -638 99 -828 211 -86 51 -199 165 -212 214
-28 107 -40 427 -17 464 7 11 107 4 206 -14z m5986 -452 c-40 -106 -237 -314
-412 -435 -480 -332 -1097 -554 -1759 -633 -255 -31 -1174 -13 -1160 23 3 7 5
17 5 22 0 5 10 10 23 12 46 7 -175 49 -334 63 -226 20 -462 19 -784 -5 -254
-19 -319 -25 -590 -51 -442 -44 -999 92 -1221 298 -27 25 -29 24 -13 -11 7
-14 16 -23 20 -20 5 3 9 -8 9 -25 0 -79 260 -214 523 -272 206 -45 510 -61
762 -39 61 5 196 14 300 20 105 6 237 16 295 21 293 27 452 30 642 14 231 -19
248 -22 248 -46 0 -18 -10 -19 -148 -19 -86 0 -152 4 -158 10 -7 7 -63 7 -165
1 -124 -6 -157 -5 -170 5 -20 18 -69 17 -92 -1 -21 -15 -113 -26 -267 -30 -58
-1 -153 -9 -212 -18 -83 -12 -113 -13 -137 -4 -24 9 -40 8 -73 -1 -24 -7 -90
-18 -147 -23 -97 -9 -105 -9 -125 10 -28 26 -76 38 -76 20 -1 -37 -13 -39
-138 -29 -67 5 -139 17 -160 25 -20 9 -71 18 -114 20 -85 4 -168 25 -239 61
-26 13 -62 25 -80 27 -19 2 -71 19 -116 36 -141 55 -239 164 -297 329 l-29 83
32 62 c90 174 113 223 131 271 l20 52 53 -51 c64 -59 210 -143 327 -186 103
-37 319 -91 466 -115 95 -16 174 -19 619 -19 l510 -1 240 -36 c132 -20 283
-46 335 -57 93 -20 403 -67 637 -96 311 -39 809 -44 1093 -10 766 90 1544 380
1840 686 75 78 98 94 86 62z m-7312 -175 c-30 -82 5 -226 82 -346 54 -83 225
-246 328 -314 135 -89 352 -190 447 -209 30 -5 83 -7 119 -4 63 6 69 5 140
-33 41 -22 113 -52 160 -65 47 -14 130 -39 185 -56 55 -17 134 -37 175 -46
155 -32 170 -58 27 -49 -116 7 -353 32 -432 45 -187 32 -522 141 -680 221
-190 96 -341 221 -438 363 -104 152 -162 399 -119 508 18 44 23 31 6 -15z
m-58 -503 c39 -72 213 -240 319 -310 424 -279 1058 -440 1668 -422 211 6 397
30 409 52 11 18 116 33 288 40 83 4 200 17 273 31 186 35 577 58 591 35 11
-17 -93 -47 -309 -90 -82 -16 -202 -41 -265 -55 -167 -36 -649 -104 -836 -117
-177 -13 -478 -2 -689 26 -583 78 -1088 299 -1326 582 -126 150 -170 231 -183
338 l-6 50 19 -55 c11 -31 32 -78 47 -105z m7043 -10 c31 -8 151 -28 266 -44
232 -33 357 -65 554 -142 101 -40 140 -61 182 -98 30 -26 84 -67 121 -91 37
-24 66 -45 64 -47 -2 -2 -36 11 -77 28 -198 82 -385 150 -489 178 -221 58
-329 72 -778 99 -73 5 -137 13 -143 19 -15 15 33 59 96 89 58 28 121 31 204 9z
m-7058 -283 c134 -162 508 -377 848 -486 273 -88 608 -148 911 -161 193 -8
544 9 700 35 68 11 173 27 232 35 173 23 593 107 1023 205 403 92 698 123 708
75 2 -11 -150 -52 -463 -124 -118 -27 -298 -70 -400 -95 -102 -24 -234 -54
-295 -66 -60 -12 -169 -35 -241 -51 -156 -34 -554 -93 -744 -110 -167 -15
-551 -16 -686 -1 -171 19 -503 81 -634 119 -229 65 -472 173 -640 285 -114 75
-256 214 -328 320 -50 73 -85 143 -45 89 10 -14 34 -45 54 -69z m7138 57 c278
-28 585 -111 791 -214 78 -40 345 -224 336 -232 -5 -5 -137 49 -291 120 -254
116 -477 182 -700 208 -243 28 -702 16 -955 -26 -120 -20 -272 -37 -277 -31
-8 8 102 59 242 114 126 49 194 64 350 76 73 5 395 -4 504 -15z m21 -209 c215
-16 316 -41 525 -130 146 -61 308 -145 402 -206 83 -54 202 -159 191 -169 -3
-3 -70 27 -149 67 -79 41 -191 91 -249 112 -77 29 -118 50 -154 82 -27 23 -58
44 -70 47 -11 3 -61 17 -110 32 -300 90 -574 103 -1100 54 -267 -25 -324 -33
-526 -71 -608 -114 -810 -162 -1790 -419 -212 -56 -600 -150 -710 -173 -41 -8
-136 -29 -210 -46 -347 -79 -614 -127 -930 -166 -164 -21 -611 -23 -800 -5
-259 25 -655 122 -891 216 -277 112 -408 198 -579 380 -64 68 -64 68 -15 28
122 -99 288 -188 557 -297 235 -95 503 -164 833 -212 174 -26 726 -27 945 -1
291 34 674 107 1175 222 110 25 250 57 310 71 61 13 155 36 210 50 55 15 134
35 175 44 41 10 183 46 315 80 132 34 283 73 335 85 52 13 115 31 140 40 74
26 347 92 475 115 66 12 161 30 210 40 268 58 655 115 905 133 107 8 456 6
580 -3z m-7020 -225 c229 -148 580 -298 865 -369 132 -33 427 -81 593 -96 203
-19 580 -8 837 24 282 35 669 108 1120 211 105 24 217 49 250 55 33 6 112 24
175 40 63 15 196 46 295 69 99 22 308 70 464 107 248 57 304 66 430 73 144 8
181 7 125 -4 -16 -3 -76 -21 -134 -40 -58 -19 -143 -44 -190 -54 -47 -11 -121
-31 -165 -44 -110 -34 -374 -103 -465 -121 -41 -8 -158 -36 -260 -61 -223 -56
-829 -193 -1014 -229 -581 -116 -1007 -158 -1353 -137 -584 37 -1179 215
-1488 447 -102 77 -241 213 -269 264 -17 31 -12 28 45 -26 35 -34 98 -83 139
-109z m7077 45 c199 -15 373 -57 373 -89 0 -5 -206 -8 -457 -7 -419 1 -475 -1
-658 -22 -186 -22 -441 -58 -581 -82 -183 -33 -967 -195 -1069 -221 -66 -17
-149 -38 -185 -46 -186 -45 -560 -140 -745 -188 -230 -61 -480 -123 -620 -154
-489 -109 -572 -125 -820 -161 -494 -71 -817 -75 -1220 -15 -161 24 -479 99
-555 132 -19 8 -82 32 -140 53 -58 20 -145 57 -195 81 -78 38 -105 58 -199
151 -60 60 -106 111 -103 114 3 3 49 -21 104 -54 351 -211 799 -347 1323 -403
147 -16 579 -12 738 6 244 28 582 84 792 131 113 26 261 59 330 74 272 60 374
84 595 142 317 83 462 121 585 152 609 153 614 154 1160 261 263 51 447 82
738 121 226 30 587 41 809 24z m-336 -217 c-5 -10 -19 -26 -30 -35 -21 -18
-21 -23 -21 -638 l0 -620 73 0 c138 1 277 17 296 34 10 9 20 16 22 16 3 0 6
-60 7 -132 1 -73 5 -141 8 -150 4 -14 -1 -18 -23 -18 -193 -2 -588 -36 -647
-57 -22 -7 -41 -11 -44 -8 -3 3 5 26 18 53 l24 47 4 706 5 706 -37 40 -36 40
143 6 c78 4 156 11 172 16 17 5 40 10 53 10 19 1 21 -2 13 -16z m597 0 c89 -3
162 -9 162 -12 0 -3 -14 -18 -32 -33 l-32 -26 4 -449 c2 -246 4 -518 5 -604
l0 -155 130 -19 c72 -10 153 -20 180 -22 98 -7 90 6 90 -153 0 -77 -2 -140 -5
-140 -3 0 -32 7 -65 14 -118 28 -331 50 -482 51 -84 0 -153 3 -153 7 0 4 9 24
19 45 19 36 20 74 27 735 l7 698 -37 33 c-43 40 -46 52 -8 43 15 -4 100 -9
190 -13z m-1035 -181 l4 -161 -26 20 c-30 24 -58 22 -238 -17 -62 -13 -123
-24 -136 -24 l-24 0 -6 -197 c-4 -108 -5 -198 -3 -200 4 -4 204 24 243 33 12
3 27 12 34 20 6 8 15 14 19 14 4 0 10 -51 13 -112 4 -62 10 -131 13 -153 l7
-40 -26 24 c-29 26 -29 26 -205 -7 l-94 -17 3 -198 3 -197 31 5 c16 3 99 16
183 29 121 19 158 29 176 45 12 12 26 21 32 21 5 0 9 -65 9 -155 l0 -155 -45
0 c-25 -1 -79 -7 -120 -14 -41 -8 -154 -28 -250 -45 -179 -32 -280 -54 -314
-67 -17 -6 -16 -3 5 25 l24 33 6 411 c4 227 7 557 8 734 l1 322 -22 15 c-33
23 -45 20 -57 -16 -16 -51 -58 -288 -76 -433 -9 -71 -27 -193 -40 -270 -13
-77 -27 -165 -30 -195 -9 -72 -72 -489 -85 -562 -6 -32 -10 -69 -8 -84 3 -26
0 -28 -62 -40 -36 -8 -116 -27 -177 -42 -62 -15 -113 -24 -113 -19 0 4 4 16
10 26 6 12 3 55 -10 132 -10 63 -26 157 -34 209 -37 225 -68 395 -72 399 -2 2
-4 -27 -4 -65 0 -76 -19 -237 -49 -426 -29 -175 -41 -270 -38 -291 2 -16 -19
-24 -148 -57 -82 -21 -157 -41 -165 -44 -17 -7 -16 -16 -70 359 -16 110 -41
302 -55 427 -29 255 -88 626 -105 658 -23 42 -32 31 -110 -140 -189 -412 -243
-546 -235 -579 20 -79 256 -589 316 -683 18 -27 42 -54 56 -61 22 -12 17 -15
-74 -41 -142 -41 -245 -68 -247 -64 -1 2 -9 23 -18 48 -49 137 -236 540 -249
540 -18 0 -32 -122 -36 -327 -3 -122 -3 -233 1 -247 3 -14 16 -34 27 -45 23
-21 18 -41 -9 -41 -9 0 -86 -18 -170 -41 -84 -23 -155 -39 -157 -37 -3 2 4 22
15 44 18 37 19 80 26 762 l7 722 -32 11 c-42 15 -41 39 3 39 44 0 217 45 269
70 57 28 62 25 35 -17 -22 -37 -23 -46 -28 -326 -3 -158 -3 -287 1 -287 3 0
15 24 28 53 68 153 126 290 151 352 15 39 40 96 55 128 35 75 44 134 21 143
-31 12 -15 21 59 33 41 7 109 23 152 37 43 13 128 33 188 44 61 10 137 28 170
39 33 11 63 21 68 21 13 0 7 -20 -13 -48 l-21 -28 30 -184 c27 -163 69 -476
90 -657 7 -64 21 -97 21 -50 0 14 11 82 25 151 25 123 98 623 109 743 5 56 3
65 -20 92 -30 36 -34 33 91 55 50 9 122 25 160 36 74 21 103 14 59 -15 -25
-16 -26 -20 -21 -84 8 -104 45 -379 77 -576 16 -100 32 -213 36 -253 7 -69 24
-102 24 -44 0 15 14 108 30 207 17 99 42 263 55 365 13 102 33 230 43 285 11
54 18 104 16 110 -2 5 -18 19 -34 30 -17 11 -30 22 -30 25 0 3 39 11 88 18 48
6 122 20 164 31 43 11 150 30 237 41 88 12 254 40 368 63 114 24 209 42 211
41 1 0 4 -73 5 -162z m-5923 -584 c52 -19 128 -43 168 -53 75 -18 86 -27 53
-45 -28 -15 -34 -42 -21 -107 27 -144 70 -453 85 -603 19 -197 45 -423 48
-427 5 -4 97 567 122 752 13 99 29 204 35 233 12 53 12 54 -19 86 -17 18 -31
34 -31 37 0 3 36 0 80 -7 45 -7 119 -16 165 -20 58 -5 85 -11 85 -19 0 -7 -7
-15 -15 -19 -31 -12 -18 -142 70 -670 30 -182 55 -342 55 -356 0 -47 14 -8 26
77 22 143 81 556 105 731 l22 163 -26 27 c-15 16 -27 32 -27 36 0 5 30 6 68 3
37 -3 116 -1 177 3 60 5 111 8 113 6 2 -3 -8 -22 -23 -44 -30 -45 -64 -197
-90 -400 -22 -171 -93 -640 -115 -762 -18 -98 -60 -371 -60 -390 0 -8 -57 -14
-247 -25 l-101 -6 5 38 c3 21 -13 154 -35 298 -23 143 -44 302 -48 354 -4 51
-10 87 -14 80 -13 -24 -70 -358 -101 -589 -12 -85 -22 -156 -23 -156 0 -1 -64
9 -141 22 -77 13 -157 23 -177 24 -36 0 -37 1 -31 33 3 18 -6 105 -21 193 -14
87 -30 202 -35 254 -90 814 -121 1057 -152 1172 -5 20 -25 55 -44 78 -19 23
-35 43 -35 45 0 5 43 -9 150 -47z m2530 -11 c0 -8 -9 -22 -20 -32 -21 -19 -21
-25 -18 -645 l3 -625 165 43 c144 38 168 47 191 73 l26 30 8 -151 c4 -84 3
-155 -1 -159 -13 -12 -234 -67 -400 -101 -82 -17 -182 -39 -221 -49 -82 -21
-88 -17 -55 42 16 29 17 88 20 743 l4 712 -36 28 c-19 15 -32 32 -30 36 3 4
26 8 52 8 50 0 210 31 252 48 35 15 60 14 60 -1z m-2756 -29 c16 -26 39 -136
30 -149 -7 -12 -41 -11 -64 1 -21 11 -37 101 -26 145 8 32 40 33 60 3z m2086
-120 c0 -24 18 -135 40 -248 22 -113 67 -351 100 -530 106 -569 118 -631 134
-655 29 -45 23 -49 -127 -79 -78 -15 -152 -30 -164 -33 -21 -5 -21 -3 -12 30
7 25 4 65 -11 152 -11 64 -20 119 -20 121 0 10 -245 -18 -257 -30 -2 -1 -15
-58 -29 -125 l-25 -122 21 -35 22 -34 -34 0 c-18 0 -97 -7 -176 -17 -78 -9
-144 -14 -147 -11 -3 3 6 25 20 49 33 61 66 206 219 974 19 94 41 199 50 235
8 36 23 121 32 189 l17 124 -22 16 c-21 16 -18 17 91 30 62 7 142 18 178 25
103 21 100 22 100 -26z m5810 -253 c9 -11 15 -111 20 -373 5 -196 11 -369 15
-384 10 -37 -4 -36 -103 2 -205 79 -378 105 -827 125 -144 7 -865 -26 -958
-44 l-47 -8 0 48 c0 36 5 51 18 58 53 29 637 73 967 74 340 0 502 -16 713 -72
46 -13 86 -20 89 -17 3 3 8 132 12 286 6 281 6 282 30 301 28 23 54 24 71 4z
m-2119 -834 c25 -26 29 -37 29 -88 0 -54 -2 -60 -35 -88 l-36 -30 56 -67 57
-68 -59 0 c-57 0 -61 2 -103 45 -34 34 -51 45 -70 43 -24 -3 -25 -6 -25 -63
l0 -60 -48 -3 -47 -3 -1 68 c-1 37 0 84 2 103 5 49 4 108 -1 155 -4 36 -2 41
22 53 38 18 102 30 171 31 52 1 62 -2 88 -28z m749 -16 c33 -17 40 -44 13 -46
-10 -1 -29 -2 -42 -2 -30 -2 -41 -27 -11 -27 30 0 80 -28 80 -44 0 -25 -49
-74 -80 -81 -33 -7 -65 7 -81 36 -10 20 -8 20 42 17 58 -3 79 15 35 32 -38 14
-67 47 -59 67 9 26 44 63 60 63 8 0 27 -7 43 -15z m318 -21 c43 -48 18 -105
-63 -144 -35 -17 -48 -19 -64 -10 -34 18 -24 35 39 65 71 34 88 50 64 59 -24
9 -52 -2 -59 -25 -8 -25 -19 -24 -38 5 -14 21 -14 26 0 45 32 46 81 48 121 5z
m-563 -7 c24 -18 11 -37 -26 -37 -37 0 -38 -18 -1 -22 24 -3 27 -7 27 -38 0
-30 -4 -35 -32 -43 -18 -5 -40 -6 -50 -3 -16 7 -15 9 10 22 61 32 18 45 -67
19 -27 -8 -76 -15 -109 -15 -50 0 -58 2 -53 16 3 9 6 22 6 29 0 18 22 25 115
35 57 7 85 15 99 30 24 23 54 26 81 7z m-857 -13 c24 -16 30 -52 10 -59 -7 -2
-29 -6 -50 -9 -40 -7 -48 -19 -41 -59 5 -25 9 -27 53 -27 53 0 59 -7 50 -60
-4 -31 -9 -35 -37 -38 -32 -3 -32 -4 -27 -47 7 -49 -2 -58 -73 -70 l-42 -7 -8
39 c-14 65 -7 334 9 344 23 15 132 10 156 -7z m-389 -61 c28 -24 123 -237 129
-290 5 -50 -6 -55 -42 -16 -23 25 -27 26 -97 19 -86 -8 -112 -22 -125 -67 -8
-28 -17 -35 -57 -48 -26 -8 -50 -12 -53 -8 -3 3 8 36 24 74 17 37 52 120 78
183 43 104 87 170 112 170 5 0 19 -8 31 -17z m-329 -49 c0 -49 -15 -60 -105
-79 -93 -20 -110 -32 -101 -70 8 -30 20 -31 86 -5 28 11 55 20 60 20 6 0 10
-19 10 -43 l0 -43 -67 -13 c-38 -8 -74 -18 -80 -24 -14 -10 -18 -63 -5 -70 4
-3 45 3 92 13 116 26 110 27 110 -25 0 -37 -3 -45 -19 -45 -10 0 -75 -13 -144
-30 -69 -16 -127 -30 -129 -30 -2 0 -2 89 -2 197 l2 197 43 14 c73 23 213 60
232 61 12 1 17 -7 17 -25z m-425 -96 c-7 -24 -51 -183 -85 -308 -22 -81 -32
-95 -71 -105 -26 -6 -27 -4 -65 111 -42 132 -38 134 -79 -31 -14 -60 -32 -115
-38 -122 -7 -6 -25 -13 -41 -15 -31 -3 -22 -23 -104 212 -16 47 -37 100 -46
117 -9 18 -16 34 -16 36 0 3 20 10 44 16 24 6 51 13 60 17 12 5 16 0 16 -17 0
-29 59 -232 59 -206 1 9 17 67 37 127 26 84 41 114 60 127 14 9 28 12 33 7 5
-5 25 -53 46 -106 39 -100 55 -114 55 -50 0 32 33 178 42 187 5 5 71 23 87 24
9 1 11 -6 6 -21z m-627 -165 c-3 -46 -3 -46 -48 -57 l-45 -11 -5 -159 -5 -160
-30 -8 c-56 -15 -57 -12 -55 150 2 81 2 150 1 154 0 4 -26 -2 -58 -13 -31 -10
-58 -19 -60 -19 -1 0 -3 22 -3 48 l0 49 68 12 c37 7 103 23 147 36 44 12 84
23 88 24 4 0 7 -20 5 -46z m-453 -117 c115 -88 71 -290 -80 -369 -48 -24 -118
-26 -162 -4 -66 35 -112 124 -97 190 17 79 80 165 149 202 48 26 143 16 190
-19z m-2920 -35 c161 -45 394 -80 635 -96 83 -5 588 21 788 41 l62 7 0 -51 c0
-39 -4 -52 -17 -56 -83 -26 -583 -70 -793 -70 -235 1 -540 42 -709 96 -161 51
-200 80 -186 135 6 25 7 26 78 20 40 -4 104 -15 142 -26z m2391 -73 c41 -28
73 -77 81 -120 14 -87 -63 -219 -152 -259 -122 -56 -255 27 -255 158 0 68 22
116 80 174 80 81 171 98 246 47z m-416 -100 l0 -43 -103 -20 -102 -20 -3 -42
c-2 -24 0 -43 5 -43 4 0 40 6 80 14 80 15 83 13 83 -45 0 -23 -4 -29 -21 -29
-12 0 -50 -5 -85 -12 l-64 -11 0 -78 c0 -43 -3 -80 -7 -82 -5 -2 -24 -7 -44
-11 l-37 -6 -4 182 c-3 101 -8 190 -12 199 -6 13 17 22 136 52 79 20 151 36
161 37 14 0 17 -8 17 -42z m-989 -228 c22 -12 25 -45 5 -53 -7 -3 -23 1 -34 9
-14 10 -23 11 -27 4 -12 -20 5 -41 49 -61 35 -15 43 -23 39 -38 -13 -50 -97
-79 -133 -46 -30 27 -24 35 25 35 25 0 45 4 45 10 0 5 -18 22 -40 36 -46 30
-47 37 -20 82 21 34 53 42 91 22z m399 -45 c0 -51 4 -49 -114 -65 -38 -5 -73
-7 -78 -4 -4 3 -8 25 -8 49 0 51 3 53 110 58 36 2 71 4 78 5 8 1 12 -13 12
-43z m-620 15 c16 -30 6 -38 -50 -37 -28 0 -56 -5 -62 -11 -19 -19 -28 -14
-28 12 0 38 25 56 80 56 39 0 52 -4 60 -20z m-6 -91 c17 -40 11 -64 -22 -89
-39 -31 -122 -24 -122 11 0 16 8 19 53 19 30 0 57 3 60 7 14 14 -17 33 -55 33
-32 0 -39 3 -36 17 3 18 34 30 81 32 22 1 31 -5 41 -30z"/>
<path d="M2014 5982 c32 -61 123 -147 207 -194 94 -54 279 -117 436 -150 93
-20 138 -23 331 -23 151 0 225 4 230 11 4 6 21 15 37 19 21 6 -32 11 -170 17
-284 11 -426 33 -635 100 -106 34 -320 143 -388 199 -59 47 -63 49 -48 21z"/>
<path d="M4040 5724 c-30 -2 -121 -8 -203 -14 -81 -5 -155 -14 -165 -20 -15
-10 -15 -11 3 -4 11 4 142 8 291 9 176 2 278 6 290 13 16 10 13 11 -21 12 -22
0 -62 2 -90 4 -27 2 -75 2 -105 0z"/>
<path d="M3056 3695 c-10 -90 -31 -218 -61 -370 -13 -66 -27 -143 -31 -171
l-6 -51 97 13 c53 7 98 14 99 16 4 4 -19 173 -49 363 -14 88 -29 185 -33 215
l-8 55 -8 -70z"/>
<path d="M6762 2964 c-16 -11 -22 -25 -22 -51 l0 -35 60 4 c76 5 86 14 66 62
-13 31 -19 36 -48 36 -19 0 -44 -7 -56 -16z"/>
<path d="M6132 2759 c-10 -24 -18 -46 -16 -48 8 -9 94 12 94 23 0 7 -13 25
-29 40 l-29 28 -20 -43z"/>
<path d="M4171 2414 c-28 -20 -60 -88 -61 -126 0 -17 12 -41 29 -60 69 -78
191 -6 191 114 0 38 -5 50 -26 67 -33 26 -100 28 -133 5z"/>
<path d="M3639 2271 c-36 -35 -39 -43 -39 -93 0 -62 22 -91 75 -102 63 -13
135 62 135 142 0 59 -33 92 -91 92 -35 0 -48 -6 -80 -39z"/>
</g>
</svg>
