<?xml version="1.0" standalone="no"?>
<!DOCTYPE svg PUBLIC "-//W3C//DTD SVG 20010904//EN"
 "http://www.w3.org/TR/2001/REC-SVG-20010904/DTD/svg10.dtd">
<svg version="1.0" xmlns="http://www.w3.org/2000/svg"
 width="1024.000000pt" height="1024.000000pt" viewBox="0 0 1024.000000 1024.000000"
 preserveAspectRatio="xMidYMid meet">

<g transform="translate(0.000000,1024.000000) scale(0.100000,-0.100000)"
fill="#000000" stroke="none">
<path d="M4961 7949 c-23 -9 -23 -11 -16 -102 4 -50 10 -95 14 -99 10 -12 134
11 151 28 20 20 3 46 -39 59 -23 7 -30 13 -25 25 7 17 6 79 -2 92 -7 11 -53 9
-83 -3z"/>
<path d="M7630 7893 c-69 -12 -179 -32 -245 -43 -128 -22 -145 -32 -137 -78 7
-40 20 -52 59 -52 50 0 113 -35 113 -63 0 -57 -66 -160 -263 -412 -62 -79
-145 -189 -186 -244 -40 -56 -78 -104 -83 -107 -8 -5 -3 797 5 892 2 16 -4 19
-34 17 -50 -3 -440 -131 -461 -152 -10 -9 -21 -38 -24 -65 l-7 -49 42 7 c52 8
117 -8 130 -32 13 -25 16 -1092 3 -1155 -11 -55 -32 -81 -83 -108 -30 -15 -39
-27 -48 -63 -6 -25 -11 -50 -11 -56 0 -16 69 -3 220 42 74 23 184 53 243 67
60 15 112 33 117 41 11 17 13 61 4 84 -4 9 -18 16 -34 16 -16 0 -40 4 -54 10
l-26 10 0 180 c0 138 3 180 13 180 6 -1 48 -44 92 -96 123 -146 234 -250 301
-281 54 -25 69 -28 174 -28 184 0 323 49 430 151 74 71 116 135 131 202 16 67
3 102 -39 102 -24 0 -33 -8 -57 -52 -42 -78 -115 -144 -177 -163 -68 -20 -86
-19 -128 6 -56 34 -87 66 -189 204 -53 71 -127 165 -164 209 -59 68 -66 81
-55 96 7 9 29 38 48 65 19 26 62 80 95 120 33 39 101 127 150 195 117 159 176
224 231 249 l44 21 0 74 c0 41 -3 76 -7 78 -5 3 -64 -6 -133 -19z"/>
<path d="M4630 7877 c-88 -26 -90 -29 -64 -143 l17 -77 67 7 c126 11 172 42
137 89 -12 18 -16 18 -76 2 -82 -21 -93 -11 -12 11 48 14 61 21 61 37 0 18 -5
19 -67 14 -59 -5 -63 -5 -28 4 22 6 50 12 63 15 17 3 22 11 22 34 0 37 -14 38
-120 7z"/>
<path d="M4310 7763 c-12 -16 -28 -43 -35 -60 -17 -41 -33 -42 -46 -4 l-10 28
-56 -13 c-31 -7 -60 -17 -65 -22 -12 -12 77 -181 98 -189 27 -10 78 31 88 70
11 45 22 46 44 7 19 -34 31 -36 72 -15 38 20 38 43 3 132 -40 104 -55 114 -93
66z"/>
<path d="M5725 7496 c-126 -50 -240 -97 -252 -104 -27 -15 -37 -44 -29 -87 l6
-33 84 5 c77 5 85 4 106 -17 l23 -23 -5 -568 c-4 -450 -2 -576 8 -606 17 -49
72 -100 119 -109 53 -10 203 21 323 66 56 21 122 42 146 45 23 4 48 10 54 14
10 6 22 77 39 229 3 30 2 52 -4 52 -5 0 -33 -26 -63 -58 -57 -60 -122 -97
-187 -108 -57 -9 -82 15 -92 91 -4 33 -6 330 -4 660 2 330 1 610 -2 622 -3 13
-13 23 -23 22 -9 0 -120 -42 -247 -93z"/>
<path d="M3525 7379 c-27 -11 -54 -24 -58 -29 -5 -4 0 -28 11 -53 22 -51 26
-51 112 -15 57 24 64 39 37 79 -28 42 -39 44 -102 18z"/>
<path d="M3355 7319 c-16 -5 -41 -22 -55 -39 -24 -29 -102 -60 -154 -60 -11 0
-39 -10 -63 -21 -43 -21 -44 -23 -41 -63 l3 -41 40 2 c72 5 147 33 183 69 19
19 38 34 43 34 5 0 9 4 9 8 0 4 11 9 26 10 52 4 91 44 79 81 -7 23 -31 30 -70
20z"/>
<path d="M7905 7219 c-33 -5 -79 -16 -103 -25 -43 -16 -43 -16 -40 -63 l3 -46
139 3 c166 5 186 10 186 51 0 86 -35 101 -185 80z"/>
<path d="M4805 7048 c-16 -11 -54 -34 -84 -51 -61 -36 -107 -103 -162 -235
-17 -43 -55 -126 -85 -187 -56 -116 -144 -334 -199 -496 -18 -54 -59 -146 -92
-205 -32 -60 -74 -140 -93 -177 -56 -108 -98 -158 -165 -194 -33 -17 -60 -37
-59 -42 1 -6 2 -34 3 -62 l1 -52 39 7 c40 6 205 55 421 125 114 37 115 38 118
71 2 18 1 43 -2 56 -6 21 -10 23 -54 17 -84 -10 -142 40 -128 108 9 44 60 148
75 154 31 12 290 93 366 115 44 12 87 24 96 27 12 3 23 -15 47 -79 48 -130 48
-118 -8 -171 -40 -38 -50 -54 -50 -80 0 -50 10 -58 55 -46 22 6 165 51 318
100 l277 90 0 59 c0 66 2 65 -76 60 -50 -2 -88 39 -145 159 -29 58 -62 135
-74 171 -13 36 -51 137 -86 225 -34 88 -89 239 -121 335 -37 109 -67 183 -81
196 -22 21 -22 21 -52 2z m-186 -520 c23 -36 121 -322 113 -329 -4 -4 -47 -19
-97 -34 -49 -15 -119 -40 -154 -56 -75 -34 -71 -34 -71 -11 1 48 165 452 184
452 6 0 18 -10 25 -22z"/>
<path d="M4205 7040 c-227 -85 -417 -152 -510 -180 -60 -19 -112 -35 -115 -37
-2 -2 -7 -28 -10 -58 l-6 -53 111 1 c91 1 117 -2 138 -16 51 -33 54 -18 -72
-492 -75 -286 -168 -547 -196 -549 -5 -1 -30 53 -54 119 -45 123 -179 461
-245 618 -53 125 -55 149 -20 195 33 41 64 89 64 97 0 14 -74 2 -135 -20 -37
-14 -97 -32 -134 -40 -36 -8 -120 -32 -186 -54 -66 -23 -129 -41 -140 -41 -11
0 -36 -5 -56 -10 -32 -9 -38 -16 -44 -46 -3 -21 -2 -41 4 -47 5 -5 42 -13 83
-17 40 -4 91 -16 113 -26 39 -19 40 -20 92 -174 57 -168 60 -189 39 -223 -15
-23 -58 -150 -121 -352 -42 -138 -112 -292 -126 -278 -5 5 -42 112 -83 239
-40 126 -108 327 -151 447 -42 120 -74 225 -71 232 3 8 35 29 71 47 l65 32 0
68 c0 54 -3 68 -15 68 -8 0 -70 -15 -138 -34 -67 -18 -222 -53 -344 -77 l-223
-43 0 -53 c0 -29 0 -56 0 -60 -1 -4 26 -13 60 -19 105 -22 140 -60 215 -238
57 -135 106 -283 280 -839 30 -98 61 -190 69 -205 30 -58 73 -78 143 -67 37 5
55 16 93 55 26 27 61 77 77 112 46 97 188 528 222 669 16 70 36 142 44 160
l15 34 36 -79 c33 -70 58 -139 178 -481 41 -117 85 -165 149 -165 59 1 115 28
166 81 34 36 50 68 88 174 25 72 52 146 59 165 60 158 159 471 196 620 39 156
112 374 158 470 52 110 129 195 204 226 46 18 48 20 48 60 0 58 -11 104 -24
103 -6 0 -33 -8 -61 -19z"/>
<path d="M7605 6139 c-87 -32 -335 -117 -375 -128 -18 -4 -26 -16 -31 -41 -4
-19 -6 -37 -3 -39 2 -2 39 -7 83 -11 110 -10 128 -23 136 -103 4 -34 4 -103 1
-152 -3 -50 -7 -259 -8 -465 -2 -424 13 -656 41 -645 15 6 174 20 496 45 72 6
166 17 210 26 166 31 297 124 359 254 26 55 30 76 30 140 -1 137 -64 224 -187
262 -151 46 -289 -16 -359 -162 -54 -115 -18 -288 71 -335 l25 -13 -39 -11
c-22 -6 -71 -14 -110 -17 -92 -7 -129 11 -165 81 l-25 49 -5 646 c-3 355 -7
646 -8 648 -8 9 -69 -4 -137 -29z"/>
<path d="M6725 5955 c-55 -25 -133 -62 -174 -83 -88 -44 -201 -145 -201 -180
0 -23 2 -23 96 -20 90 3 97 2 115 -21 37 -45 21 -140 -34 -194 -44 -44 -44
-52 -53 -563 -6 -354 -5 -395 10 -442 49 -148 208 -180 421 -85 110 49 227
123 254 162 33 46 77 146 97 217 l17 65 -24 24 c-13 13 -39 25 -58 27 -33 3
-35 1 -43 -35 -12 -55 -41 -107 -93 -165 -77 -86 -142 -105 -190 -57 l-25 24
0 278 c0 153 6 420 12 593 17 461 16 500 -15 500 -6 0 -57 -21 -112 -45z"/>
<path d="M5000 5399 c-162 -54 -320 -106 -350 -116 l-55 -18 -3 -52 -3 -53 63
0 c102 -1 149 -14 181 -50 21 -24 28 -40 24 -59 -21 -119 -287 -951 -316 -990
l-19 -24 -17 34 c-44 83 -316 758 -340 841 -9 32 -14 67 -10 78 3 11 26 43 51
72 43 50 55 78 34 78 -25 0 -569 -188 -597 -206 -18 -11 -23 -24 -23 -54 l0
-40 48 0 c28 0 67 -9 97 -24 l50 -23 62 -184 c82 -246 80 -235 44 -265 -29
-24 -70 -133 -164 -440 -14 -44 -35 -102 -47 -129 l-22 -49 -14 26 c-7 14 -36
97 -64 184 -90 283 -123 378 -152 449 -37 88 -93 241 -102 279 -6 26 -1 34 59
91 60 57 65 66 65 104 0 40 -1 41 -27 34 -36 -8 -274 -95 -336 -122 -26 -11
-76 -28 -110 -36 -34 -9 -91 -25 -127 -35 -36 -10 -76 -21 -90 -24 -23 -5 -25
-9 -25 -63 l0 -58 61 -6 c75 -7 122 -34 176 -102 66 -85 103 -175 198 -487 22
-74 63 -202 90 -285 27 -82 59 -184 71 -225 42 -146 84 -197 153 -185 64 10
150 68 185 125 40 64 145 360 217 610 31 107 59 205 62 218 2 12 8 24 12 27
12 7 92 -191 160 -395 69 -206 72 -214 108 -252 56 -60 153 -42 243 45 51 48
58 62 102 182 25 72 71 199 101 282 31 84 84 246 120 360 108 351 186 556 251
662 41 69 121 147 198 195 l57 37 0 69 c0 61 -2 70 -17 69 -10 -1 -151 -46
-313 -100z"/>
<path d="M5750 5286 c-30 -7 -75 -23 -100 -36 -97 -50 -244 -191 -339 -328
-12 -18 -53 -92 -90 -165 -37 -72 -82 -158 -99 -191 -29 -52 -32 -67 -32 -143
0 -145 45 -278 123 -361 36 -39 138 -82 218 -93 218 -31 471 99 627 320 25 36
57 80 71 96 36 45 91 165 91 201 0 45 -28 67 -68 53 -18 -6 -32 -14 -32 -18 0
-21 -169 -261 -215 -307 -57 -55 -152 -107 -217 -119 -69 -13 -101 1 -176 73
-62 59 -71 73 -81 120 -6 29 -11 68 -11 87 0 38 -10 34 225 111 220 73 386
164 480 265 85 91 96 164 43 270 -75 147 -227 207 -418 165z m43 -171 c47 -23
70 -61 75 -122 7 -89 -40 -183 -112 -220 -17 -9 -97 -38 -178 -64 l-148 -47 0
30 c0 46 30 168 56 226 36 81 95 146 166 181 69 35 96 38 141 16z"/>
<path d="M2345 4379 c-27 -3 -86 -23 -130 -44 -63 -30 -97 -55 -161 -119 -95
-95 -144 -185 -169 -311 -21 -103 -21 -274 -1 -340 9 -27 16 -65 16 -83 0 -84
114 -286 225 -398 145 -147 400 -291 560 -318 315 -52 471 -52 765 -2 113 19
248 48 300 64 52 16 136 42 185 56 271 80 808 263 945 321 30 13 145 58 255
99 407 151 531 198 565 211 19 8 141 51 270 95 129 45 273 97 320 115 325 127
460 172 695 231 203 52 283 64 440 71 245 10 418 -38 538 -148 79 -72 114
-137 123 -229 16 -164 -72 -346 -201 -413 l-40 -21 53 -10 c37 -6 68 -5 105 4
29 6 56 11 61 10 5 -1 13 5 18 14 5 9 15 16 22 16 24 0 118 112 148 176 56
119 44 326 -25 459 -39 75 -142 178 -227 228 -141 82 -359 126 -555 112 -95
-7 -405 -64 -490 -91 -27 -8 -99 -29 -160 -45 -108 -29 -398 -131 -605 -211
-58 -22 -179 -67 -270 -99 -91 -32 -221 -79 -290 -104 -258 -96 -318 -118
-440 -160 -69 -23 -163 -59 -210 -80 -47 -20 -215 -81 -375 -136 -159 -55
-328 -114 -375 -131 -47 -16 -122 -41 -167 -53 -46 -13 -86 -26 -91 -29 -28
-17 -397 -120 -492 -137 -413 -73 -831 0 -1068 186 -142 111 -275 287 -320
422 -22 66 -26 96 -26 198 -1 115 1 123 32 190 52 110 103 170 175 206 106 54
238 53 322 -3 53 -35 74 -62 85 -114 l8 -36 -21 20 c-36 32 -63 42 -117 42
-88 0 -151 -44 -191 -134 -49 -112 15 -269 126 -312 86 -32 205 -5 278 64 94
89 133 276 88 421 -59 189 -276 309 -506 280z"/>
<path d="M7260 3763 c-53 -9 -350 -85 -445 -114 -94 -29 -321 -117 -730 -284
-99 -40 -198 -78 -220 -85 -100 -32 -399 -156 -502 -208 -44 -23 -76 -59 -66
-74 9 -16 120 1 233 34 123 36 666 234 885 323 199 80 339 129 515 180 285 82
320 88 468 82 70 -3 142 -9 160 -12 31 -7 32 -6 32 26 0 49 -33 97 -83 119
-32 15 -63 19 -132 18 -49 0 -101 -3 -115 -5z"/>
<path d="M5717 2633 c-3 -80 -3 -152 0 -160 3 -8 22 -13 48 -13 42 0 42 0 48
41 3 22 8 43 12 47 11 11 39 -13 54 -46 11 -24 23 -33 48 -38 65 -12 70 -1 80
194 l6 122 -45 0 c-43 0 -46 -2 -52 -31 -3 -17 -6 -54 -6 -81 l0 -49 -47 3
-48 3 -3 78 -3 77 -43 0 -43 0 -6 -147z"/>
<path d="M6217 2773 c-3 -5 -8 -76 -12 -159 l-7 -151 116 -12 c63 -8 122 -11
131 -7 21 8 21 82 -1 90 -9 3 -45 6 -81 6 l-66 0 5 108 c3 59 3 113 1 120 -5
13 -79 17 -86 5z"/>
<path d="M5390 2763 c-121 -6 -111 9 -108 -166 l3 -152 118 -3 118 -3 -3 43
-3 43 -72 -4 c-67 -3 -73 -2 -73 17 0 22 25 32 83 32 36 0 37 1 37 35 l0 35
-60 0 c-52 0 -60 2 -60 19 0 22 26 31 96 31 50 0 52 1 58 31 8 41 1 49 -37 47
-18 -1 -61 -3 -97 -5z"/>
<path d="M4951 2732 l-113 -15 6 -51 c3 -28 6 -97 6 -153 l0 -103 63 0 c34 0
92 3 130 7 l67 6 0 31 c0 55 -9 60 -82 47 -82 -14 -78 -14 -78 9 0 15 7 20 29
20 16 0 42 5 56 10 21 8 26 16 23 38 -3 26 -5 27 -62 27 -41 0 -61 5 -64 14
-7 20 14 29 89 36 67 7 67 7 74 41 7 37 1 55 -18 53 -7 -1 -63 -8 -126 -17z"/>
<path d="M4434 2647 l-71 -10 4 -81 c2 -45 6 -114 9 -153 l6 -73 43 0 c48 0
55 9 55 71 0 36 2 39 28 39 23 0 32 -8 50 -46 17 -33 27 -44 40 -40 9 2 31 7
49 11 l31 6 -25 57 c-23 54 -24 58 -9 89 25 52 21 98 -10 122 -30 23 -76 25
-200 8z m117 -69 c4 -44 -10 -58 -58 -58 -31 0 -33 2 -33 35 0 35 0 35 45 35
29 0 45 -5 46 -12z"/>
<path d="M4162 2528 c-12 -24 -24 -52 -28 -63 -5 -16 -9 -12 -20 25 -27 88
-70 88 -101 0 -10 -28 -22 -49 -28 -47 -5 2 -14 22 -19 45 -9 40 -12 42 -47
42 -29 0 -39 -5 -44 -20 -7 -23 35 -145 71 -208 23 -38 29 -43 57 -40 30 3 32
6 40 56 10 61 20 60 36 -3 13 -51 37 -59 72 -24 29 29 45 72 58 156 6 39 15
83 21 97 9 24 7 26 -19 26 -23 0 -32 -7 -49 -42z"/>
</g>
</svg>
